<?xml version="1.0" encoding="UTF-8" standalone="no" ?>
<!DOCTYPE svg PUBLIC "-//W3C//DTD SVG 1.1//EN" "http://www.w3.org/Graphics/SVG/1.1/DTD/svg11.dtd">
<svg xmlns="http://www.w3.org/2000/svg" xmlns:xlink="http://www.w3.org/1999/xlink" version="1.1" width="440" height="56" viewBox="0 0 440 56" xml:space="preserve">
<desc>Created with Fabric.js 6.7.13</desc>
<defs>
</defs>
<g transform="matrix(2.0480424136 0 0 2.0480424136 220 28)" id="l2gvV76ZnLqWG_zoOn2rV"  >
<g style=""   >
		<g transform="matrix(0.181586322 0 0 0.181586322 -77.9675502677 0)" id="OctL2QMmPlxps6fdqtzVx"  >
<g style=""   >
		<g transform="matrix(1 0 0 1 -68.9904214428 9.1025096949)" id="oIZAx-BYn81mwtcRaGoIc"  >
<path style="stroke: rgb(0,0,0); stroke-width: 0; stroke-dasharray: none; stroke-linecap: butt; stroke-dashoffset: 0; stroke-linejoin: miter; stroke-miterlimit: 4; fill: rgb(249,84,31); fill-rule: nonzero; opacity: 1;"  transform=" translate(-90.516195, -62.682995)" d="M 128.84548 0.00001 L 130.25601 0.00001 C 153.23484 0.00001 171.86286 18.62803 171.86286 41.60686 C 171.86286 61.23365 156.67477 77.51356 137.09517 78.87386 L 128.84548 79.44701 L 181.03239 123.67347 L 123.69535 123.67347 L 77.17413 82.4887 L 42.45416 82.4887 L 42.45416 113.66125 L 0 125.36599 L 0 0 Z M 42.72605 30.66935 L 42.72605 52.54435 L 126.00016 52.54435 C 131.5886 52.54435 136.11893 48.01402 136.11893 42.42558 L 136.11893 41.85356 C 136.11893 35.67669 131.11159 30.66935 124.93472 30.66935 Z" stroke-linecap="round" />
</g>
		<g transform="matrix(1 0 0 1 83.0971014428 -1.0361396949)" id="74z7A314bk3_MHUB3cxyB"  >
<path style="stroke: rgb(0,0,0); stroke-width: 0; stroke-dasharray: none; stroke-linecap: butt; stroke-dashoffset: 0; stroke-linejoin: miter; stroke-miterlimit: 4; fill: rgb(249,84,31); fill-rule: nonzero; opacity: 1;"  transform=" translate(-0.000005, 0.000005)" d="M -63.29393 6.41072 C -57.03425 -5.36449 -57.21285 -19.51918 -63.76765 -31.1327 L -67.97915 -38.59446 L -38.56432 -70.74937 L 76.40952 70.74936 L 51.74901 63.74832 L 51.74901 63.74832 C 12.21422 52.52452 -28.50071 45.97705 -69.56111 44.24015 L -76.40951 43.95045 L -46.79494 13.91635 L -4.45379 23.65094 L -38.86172 -17.47538 L -67.97914 15.22416 Z" stroke-linecap="round" />
</g>
</g>
</g>
		<g transform="matrix(1.8341167914 0 0 1.8341167914 31.4165964883 0)" id="v3wlUMM87aHoCmm-i1RnF"  >
<g style=""   >
		<g transform="matrix(1 0 0 1 -37.944 0)" id="MrIlXL7Qz5l3YPnbGn9Dd"  >
<path style="stroke: none; stroke-width: 1; stroke-dasharray: none; stroke-linecap: butt; stroke-dashoffset: 0; stroke-linejoin: miter; stroke-miterlimit: 4; fill: rgb(65, 73, 95); fill-rule: nonzero; opacity: 1;"  transform=" translate(62.1585, -0.4)" d="M -59.43 6.112 Q -59.77 6.231 -60.323 6.308 Q -60.875 6.384 -61.368 6.384 L -61.368 6.384 Q -62.949 6.384 -63.68 5.883 Q -64.411 5.381 -64.649 4.166 Q -64.887 2.95 -64.887 0.4 L -64.887 0.4 Q -64.887 -2.116 -64.641 -3.34 Q -64.394 -4.564 -63.663 -5.074 Q -62.932 -5.584 -61.368 -5.584 L -61.368 -5.584 Q -60.841 -5.584 -60.297 -5.507 Q -59.753 -5.431 -59.464 -5.312 L -59.464 -5.312 L -59.464 -3.697 Q -60.365 -3.833 -60.994 -3.833 L -60.994 -3.833 Q -61.963 -3.833 -62.346 -3.578 Q -62.728 -3.323 -62.839 -2.507 Q -62.949 -1.691 -62.949 0.4 L -62.949 0.4 Q -62.949 2.491 -62.839 3.307 Q -62.728 4.123 -62.346 4.378 Q -61.963 4.633 -60.994 4.633 L -60.994 4.633 Q -60.144 4.633 -59.43 4.497 L -59.43 4.497 L -59.43 6.112 Z" stroke-linecap="round" />
</g>
		<g transform="matrix(1 0 0 1 -30.379 0)" id="0e76VMSj7xT8UVsVNsH_a"  >
<path style="stroke: none; stroke-width: 1; stroke-dasharray: none; stroke-linecap: butt; stroke-dashoffset: 0; stroke-linejoin: miter; stroke-miterlimit: 4; fill: rgb(65, 73, 95); fill-rule: nonzero; opacity: 1;"  transform=" translate(54.5935, -0.4)" d="M -54.602 6.384 Q -56.319 6.384 -57.05 5.883 Q -57.781 5.381 -57.968 4.234 Q -58.155 3.086 -58.155 0.4 L -58.155 0.4 Q -58.155 -2.286 -57.968 -3.433 Q -57.781 -4.581 -57.05 -5.082 Q -56.319 -5.584 -54.602 -5.584 L -54.602 -5.584 Q -52.885 -5.584 -52.154 -5.082 Q -51.423 -4.581 -51.228 -3.425 Q -51.032 -2.269 -51.032 0.4 L -51.032 0.4 Q -51.032 3.069 -51.228 4.225 Q -51.423 5.381 -52.154 5.883 Q -52.885 6.384 -54.602 6.384 L -54.602 6.384 Z M -54.602 4.633 Q -53.769 4.633 -53.463 4.421 Q -53.157 4.208 -53.064 3.401 Q -52.97 2.593 -52.97 0.4 L -52.97 0.4 Q -52.97 -1.793 -53.064 -2.6 Q -53.157 -3.408 -53.463 -3.62 Q -53.769 -3.833 -54.602 -3.833 L -54.602 -3.833 Q -55.435 -3.833 -55.733 -3.62 Q -56.03 -3.408 -56.124 -2.609 Q -56.217 -1.81 -56.217 0.4 L -56.217 0.4 Q -56.217 2.61 -56.124 3.409 Q -56.03 4.208 -55.733 4.421 Q -55.435 4.633 -54.602 4.633 L -54.602 4.633 Z" stroke-linecap="round" />
</g>
		<g transform="matrix(1 0 0 1 -21.5985 0)" id="rCyrljzXJMBOHlkCp6Rel"  >
<path style="stroke: none; stroke-width: 1; stroke-dasharray: none; stroke-linecap: butt; stroke-dashoffset: 0; stroke-linejoin: miter; stroke-miterlimit: 4; fill: rgb(65, 73, 95); fill-rule: nonzero; opacity: 1;"  transform=" translate(45.813, -0.4)" d="M -42.362 6.248 L -44.164 6.248 L -47.326 -0.977 L -47.394 -0.977 L -47.394 6.248 L -49.264 6.248 L -49.264 -5.448 L -47.326 -5.448 L -44.3 1.42 L -44.232 1.42 L -44.232 -5.448 L -42.362 -5.448 L -42.362 6.248 Z" stroke-linecap="round" />
</g>
		<g transform="matrix(1 0 0 1 -13.634 0)" id="7QH6S0QJx6kqJpBeOPP8d"  >
<path style="stroke: none; stroke-width: 1; stroke-dasharray: none; stroke-linecap: butt; stroke-dashoffset: 0; stroke-linejoin: miter; stroke-miterlimit: 4; fill: rgb(65, 73, 95); fill-rule: nonzero; opacity: 1;"  transform=" translate(37.8485, -0.4)" d="M -36.871 6.248 L -38.809 6.248 L -38.809 -3.646 L -41.155 -3.646 L -41.155 -5.448 L -34.542 -5.448 L -34.542 -3.646 L -36.871 -3.646 L -36.871 6.248 Z" stroke-linecap="round" />
</g>
		<g transform="matrix(1 0 0 1 -5.6525 0)" id="8F-s9k4Bvg1vj7FfF6zUE"  >
<path style="stroke: none; stroke-width: 1; stroke-dasharray: none; stroke-linecap: butt; stroke-dashoffset: 0; stroke-linejoin: miter; stroke-miterlimit: 4; fill: rgb(65, 73, 95); fill-rule: nonzero; opacity: 1;"  transform=" translate(29.867, -0.4)" d="M -26.416 6.248 L -28.456 6.248 L -29.714 1.981 L -31.38 1.981 L -31.38 6.248 L -33.318 6.248 L -33.318 -5.448 L -29.544 -5.448 Q -28.32 -5.448 -27.7 -5.023 Q -27.079 -4.598 -26.867 -3.816 Q -26.654 -3.034 -26.654 -1.742 L -26.654 -1.742 Q -26.654 -0.484 -26.901 0.349 Q -27.147 1.182 -27.895 1.573 L -27.895 1.573 L -26.416 6.248 Z M -30.003 0.23 Q -29.357 0.23 -29.068 0.069 Q -28.779 -0.093 -28.686 -0.492 Q -28.592 -0.892 -28.592 -1.742 L -28.592 -1.742 Q -28.592 -2.592 -28.686 -2.983 Q -28.779 -3.374 -29.068 -3.535 Q -29.357 -3.697 -30.003 -3.697 L -30.003 -3.697 L -31.38 -3.697 L -31.38 0.23 L -30.003 0.23 Z" stroke-linecap="round" />
</g>
		<g transform="matrix(1 0 0 1 2.431 0)" id="jD6iP1xLKWGqMSGn_ugZs"  >
<path style="stroke: none; stroke-width: 1; stroke-dasharray: none; stroke-linecap: butt; stroke-dashoffset: 0; stroke-linejoin: miter; stroke-miterlimit: 4; fill: rgb(65, 73, 95); fill-rule: nonzero; opacity: 1;"  transform=" translate(21.7835, -0.4)" d="M -17.763 6.248 L -19.752 6.248 L -20.313 3.596 L -23.305 3.596 L -23.849 6.248 L -25.804 6.248 L -23.186 -5.448 L -20.381 -5.448 L -17.763 6.248 Z M -20.687 1.862 L -21.758 -3.527 L -21.86 -3.527 L -22.948 1.862 L -20.687 1.862 Z" stroke-linecap="round" />
</g>
		<g transform="matrix(1 0 0 1 10.132 0)" id="lD4NDCSNQ_ui_ddisAdaU"  >
<path style="stroke: none; stroke-width: 1; stroke-dasharray: none; stroke-linecap: butt; stroke-dashoffset: 0; stroke-linejoin: miter; stroke-miterlimit: 4; fill: rgb(65, 73, 95); fill-rule: nonzero; opacity: 1;"  transform=" translate(14.0825, -0.4)" d="M -11.354 6.112 Q -11.694 6.231 -12.247 6.308 Q -12.799 6.384 -13.292 6.384 L -13.292 6.384 Q -14.873 6.384 -15.604 5.883 Q -16.335 5.381 -16.573 4.166 Q -16.811 2.95 -16.811 0.4 L -16.811 0.4 Q -16.811 -2.116 -16.565 -3.34 Q -16.318 -4.564 -15.587 -5.074 Q -14.856 -5.584 -13.292 -5.584 L -13.292 -5.584 Q -12.765 -5.584 -12.221 -5.507 Q -11.677 -5.431 -11.388 -5.312 L -11.388 -5.312 L -11.388 -3.697 Q -12.289 -3.833 -12.918 -3.833 L -12.918 -3.833 Q -13.887 -3.833 -14.27 -3.578 Q -14.652 -3.323 -14.763 -2.507 Q -14.873 -1.691 -14.873 0.4 L -14.873 0.4 Q -14.873 2.491 -14.763 3.307 Q -14.652 4.123 -14.27 4.378 Q -13.887 4.633 -12.918 4.633 L -12.918 4.633 Q -12.068 4.633 -11.354 4.497 L -11.354 4.497 L -11.354 6.112 Z" stroke-linecap="round" />
</g>
		<g transform="matrix(1 0 0 1 16.881 0)" id="nhjs8OWFvzEXH7zp3ktai"  >
<path style="stroke: none; stroke-width: 1; stroke-dasharray: none; stroke-linecap: butt; stroke-dashoffset: 0; stroke-linejoin: miter; stroke-miterlimit: 4; fill: rgb(65, 73, 95); fill-rule: nonzero; opacity: 1;"  transform=" translate(7.3335, -0.4)" d="M -6.356 6.248 L -8.294 6.248 L -8.294 -3.646 L -10.64 -3.646 L -10.64 -5.448 L -4.027 -5.448 L -4.027 -3.646 L -6.356 -3.646 L -6.356 6.248 Z" stroke-linecap="round" />
</g>
		<g transform="matrix(1 0 0 1 22.406 0)" id="o9cZ_XK7f6yOwnAYCjJgw"  >
<path style="stroke: none; stroke-width: 1; stroke-dasharray: none; stroke-linecap: butt; stroke-dashoffset: 0; stroke-linejoin: miter; stroke-miterlimit: 4; fill: rgb(65, 73, 95); fill-rule: nonzero; opacity: 1;"  transform=" translate(1.8085, -0.4)" d="M -0.831 6.248 L -2.786 6.248 L -2.786 -5.448 L -0.831 -5.448 L -0.831 6.248 Z" stroke-linecap="round" />
</g>
		<g transform="matrix(1 0 0 1 28.8575 0)" id="viZpNb46fylyP-k8KGhtu"  >
<path style="stroke: none; stroke-width: 1; stroke-dasharray: none; stroke-linecap: butt; stroke-dashoffset: 0; stroke-linejoin: miter; stroke-miterlimit: 4; fill: rgb(65, 73, 95); fill-rule: nonzero; opacity: 1;"  transform=" translate(-4.643, -0.4)" d="M 8.094 6.248 L 6.292 6.248 L 3.13 -0.977 L 3.062 -0.977 L 3.062 6.248 L 1.192 6.248 L 1.192 -5.448 L 3.13 -5.448 L 6.156 1.42 L 6.224 1.42 L 6.224 -5.448 L 8.094 -5.448 L 8.094 6.248 Z" stroke-linecap="round" />
</g>
		<g transform="matrix(1 0 0 1 37.3745 0)" id="uMT5wQVxvPOu2oQMwxnS9"  >
<path style="stroke: none; stroke-width: 1; stroke-dasharray: none; stroke-linecap: butt; stroke-dashoffset: 0; stroke-linejoin: miter; stroke-miterlimit: 4; fill: rgb(65, 73, 95); fill-rule: nonzero; opacity: 1;"  transform=" translate(-13.16, -0.4)" d="M 14.588 1.335 L 13.33 1.335 L 13.33 -0.399 L 16.458 -0.399 L 16.458 6.044 Q 15.914 6.197 15.106 6.291 Q 14.299 6.384 13.568 6.384 L 13.568 6.384 Q 11.987 6.384 11.213 5.9 Q 10.44 5.415 10.151 4.174 Q 9.862 2.933 9.862 0.4 L 9.862 0.4 Q 9.862 -2.133 10.168 -3.374 Q 10.474 -4.615 11.273 -5.099 Q 12.072 -5.584 13.704 -5.584 L 13.704 -5.584 Q 14.35 -5.584 15.115 -5.49 Q 15.88 -5.397 16.424 -5.244 L 16.424 -5.244 L 16.424 -3.612 Q 15.88 -3.697 15.259 -3.765 Q 14.639 -3.833 14.316 -3.833 L 14.316 -3.833 Q 13.092 -3.833 12.624 -3.62 Q 12.157 -3.408 11.978 -2.566 Q 11.8 -1.725 11.8 0.4 L 11.8 0.4 Q 11.8 2.372 11.919 3.222 Q 12.038 4.072 12.395 4.378 Q 12.752 4.684 13.585 4.684 L 13.585 4.684 Q 14.044 4.684 14.588 4.599 L 14.588 4.599 L 14.588 1.335 Z" stroke-linecap="round" />
</g>
</g>
</g>
</g>
</g>
</svg>