<?xml version="1.0" encoding="UTF-8" standalone="no" ?>
<!DOCTYPE svg PUBLIC "-//W3C//DTD SVG 1.1//EN" "http://www.w3.org/Graphics/SVG/1.1/DTD/svg11.dtd">
<svg xmlns="http://www.w3.org/2000/svg" xmlns:xlink="http://www.w3.org/1999/xlink" version="1.1" width="640" height="290" viewBox="0 0 640 290" xml:space="preserve">
<desc>Created with Fabric.js 6.7.13</desc>
<defs>
</defs>
<g transform="matrix(1.9776173585 0 0 1.9776173585 320 145)" id="Z3q6VX4UN8wxDLeoWB9L4"  >
<g style=""   >
		<g transform="matrix(1 0 0 1 -68.9904214428 9.1025096949)" id="p8hIokblh8Nb8HUaVj0J5"  >
<path style="stroke: rgb(0,0,0); stroke-width: 0; stroke-dasharray: none; stroke-linecap: butt; stroke-dashoffset: 0; stroke-linejoin: miter; stroke-miterlimit: 4; fill: rgb(249,84,31); fill-rule: nonzero; opacity: 1;"  transform=" translate(-90.516195, -62.682995)" d="M 128.84548 0.00001 L 130.25601 0.00001 C 153.23484 0.00001 171.86286 18.62803 171.86286 41.60686 C 171.86286 61.23365 156.67477 77.51356 137.09517 78.87386 L 128.84548 79.44701 L 181.03239 123.67347 L 123.69535 123.67347 L 77.17413 82.4887 L 42.45416 82.4887 L 42.45416 113.66125 L 0 125.36599 L 0 0 Z M 42.72605 30.66935 L 42.72605 52.54435 L 126.00016 52.54435 C 131.5886 52.54435 136.11893 48.01402 136.11893 42.42558 L 136.11893 41.85356 C 136.11893 35.67669 131.11159 30.66935 124.93472 30.66935 Z" stroke-linecap="round" />
</g>
		<g transform="matrix(1 0 0 1 83.0971014428 -1.0361396949)" id="Dj7xuUuaNGrZVigPKOJbf"  >
<path style="stroke: rgb(0,0,0); stroke-width: 0; stroke-dasharray: none; stroke-linecap: butt; stroke-dashoffset: 0; stroke-linejoin: miter; stroke-miterlimit: 4; fill: rgb(249,84,31); fill-rule: nonzero; opacity: 1;"  transform=" translate(-0.000005, 0.000005)" d="M -63.29393 6.41072 C -57.03425 -5.36449 -57.21285 -19.51918 -63.76765 -31.1327 L -67.97915 -38.59446 L -38.56432 -70.74937 L 76.40952 70.74936 L 51.74901 63.74832 L 51.74901 63.74832 C 12.21422 52.52452 -28.50071 45.97705 -69.56111 44.24015 L -76.40951 43.95045 L -46.79494 13.91635 L -4.45379 23.65094 L -38.86172 -17.47538 L -67.97914 15.22416 Z" stroke-linecap="round" />
</g>
</g>
</g>
</svg>